<svg viewBox="0 0 256 256" fill="none" xmlns="http://www.w3.org/2000/svg" role="img" aria-label="BeamPay">
  <rect width="256" height="256" rx="64" fill="#2563eb"></rect>
  <path fill="#ffffff" fill-rule="evenodd" d="M75.57 53.55L136.88 53.55L146.14 54.55L155.15 56.56L163.66 60.06L170.92 65.06L175.42 70.07L178.67 75.57L180.93 83.58L181.18 94.34L179.43 102.10L176.17 108.36L171.17 113.86L164.16 118.62L157.90 121.37L158.65 122.12L163.66 123.12L169.17 125.37L175.67 129.63L179.93 133.88L181.93 136.63L184.93 142.39L186.43 147.14L187.18 152.40L187.18 158.40L186.43 164.41L184.93 169.92L182.43 175.17L178.92 180.18L172.17 186.43L168.66 188.68L159.91 192.69L152.65 194.69L143.64 196.19L137.63 196.69L75.57 196.69ZM109.11 81.08L130.38 81.08L135.88 81.83L141.64 83.83L145.64 87.09L147.64 91.34L147.89 97.35L147.14 100.60L145.89 103.10L143.89 105.60L141.14 107.61L138.39 108.86L133.63 110.11L109.11 110.36ZM109.11 136.13L134.63 136.38L141.14 137.63L146.64 139.89L150.65 143.64L152.40 148.39L152.40 155.40L150.65 160.16L147.64 163.66L145.64 165.16L141.89 166.91L138.39 167.91L130.13 168.91L109.11 168.91Z"></path>
</svg>
